# xmcd CD database file
#
# Track frame offsets:
#	150
#	16534
#	33227
#	49745
#	60302
#	73976
#	88465
#	114648
#	130846
#	146319
#	165371
#	177887
#	195102
#	208756
#	219872
#	236310
#	252006
#	264150
#
# Disc length: 3751 seconds
#
# Revision: 0
# Processed by: cddbd v1.5.2PL0 Copyright (c) Steve Scherf et al.
# Submitted via: CDex 1.51
#
DISCID=e60ea512
DTITLE=Texas Troubadours - Texas Troubadours
DYEAR=1900
DGENRE=Country
TTITLE0=Love Will Turn You Around - Kenny Rogers
TTITLE1=Rose In Paradise - Waylon Jennings
TTITLE2=Lonely Nights - Mickey Gilley
TTITLE3=Blue Eyes Crying In The Rain - Willie Nelson
TTITLE4=Never Been So Loved - Charley Pride
TTITLE5=Corine, Corina - Asleep At The Wheel
TTITLE6=Desperados Waiting For A Train - Jerry Jeff Walker
TTITLE7=My Old Yellow Car - Dan Seals
TTITLE8=Don't Count The Rainy Days - Michael Martin Murphey
TTITLE9=She Believes In Me - Kenny Rogers
TTITLE10=Dallas Days and Fort Worth Nights - Chris LeDoux
TTITLE11=Old Coyote Town - Don Williams
TTITLE12=Just Beyond The Moon - Tex Ritter
TTITLE13=Yellow Rose Of Texas, The - Ernest Tubb
TTITLE14=Sunset Woman - B.W. Stevenson
TTITLE15=Long Line Of Love, A - Michael Martin Murphey
TTITLE16=Wabash Blues - Bob Wills
TTITLE17=I Love You - Jerry Jeff Walker
EXTD=
EXTT0=
EXTT1=
EXTT2=
EXTT3=
EXTT4=
EXTT5=
EXTT6=
EXTT7=
EXTT8=
EXTT9=
EXTT10=
EXTT11=
EXTT12=
EXTT13=
EXTT14=
EXTT15=
EXTT16=
EXTT17=
PLAYORDER=
